<svg width="40" height="40" viewBox="0 0 40 40" fill="none" xmlns="http://www.w3.org/2000/svg">
<g clip-path="url(#clip0_138_964)">
<path fill-rule="evenodd" clip-rule="evenodd" d="M20 3.33333C10.7952 3.33333 3.33333 10.7952 3.33333 20C3.33333 29.2048 10.7952 36.6667 20 36.6667C29.2048 36.6667 36.6667 29.2048 36.6667 20C36.6667 10.7952 29.2048 3.33333 20 3.33333ZM0 20C0 8.95433 8.95433 0 20 0C31.0457 0 40 8.95433 40 20C40 31.0457 31.0457 40 20 40C8.95433 40 0 31.0457 0 20Z" fill="black"/>
<path fill-rule="evenodd" clip-rule="evenodd" d="M15.9861 37.8929C15.8248 37.6848 15.8248 35.831 15.9861 32.3316C14.2595 32.3912 13.1687 32.2714 12.7136 31.9722C12.0308 31.5232 11.3474 30.1388 10.7409 29.1632C10.1345 28.1875 8.78858 28.0332 8.24504 27.8152C7.70151 27.597 7.56507 26.7079 9.74275 27.3803C11.9203 28.0527 12.0266 29.8838 12.7136 30.312C13.4005 30.7402 15.0429 30.5528 15.7873 30.2098C16.5318 29.8668 16.477 28.5897 16.6097 28.0838C16.7776 27.6116 16.1861 27.5068 16.1731 27.503C15.4462 27.503 11.6282 26.6727 10.5796 22.9754C9.53083 19.2782 10.8817 16.8617 11.6024 15.8228C12.0829 15.1302 12.0404 13.6542 11.4749 11.3947C13.5279 11.1323 15.1122 11.7785 16.2278 13.3333C16.2289 13.3422 17.6904 12.4642 20.0002 12.4642C22.31 12.4642 23.1294 13.1794 23.7618 13.3333C24.3942 13.4872 24.9 10.6117 28.8057 11.3947C27.9902 12.9973 27.3074 15 27.8286 15.8228C28.3498 16.6457 30.3954 19.2622 29.1388 22.9754C28.3012 25.451 26.6544 26.9602 24.1987 27.503C23.9171 27.5928 23.7762 27.7378 23.7762 27.9378C23.7762 28.2379 24.157 28.2707 24.7054 29.6763C25.0711 30.6134 25.0975 33.2899 24.7847 37.7057C23.9922 37.9075 23.3757 38.0429 22.9351 38.1122C22.1539 38.2349 21.3057 38.3037 20.4724 38.3303C19.6391 38.3569 19.3497 38.3539 18.1975 38.2467C17.4295 38.1752 16.6923 38.0572 15.9861 37.8929Z" fill="black"/>
</g>
<defs>
<clipPath id="clip0_138_964">
<rect width="40" height="40" fill="white"/>
</clipPath>
</defs>
</svg>
