<svg width="35" height="35" viewBox="0 0 35 35" fill="none" xmlns="http://www.w3.org/2000/svg">
<path fill-rule="evenodd" clip-rule="evenodd" d="M7.91644 16.875C7.47441 16.875 7.05048 17.0506 6.73792 17.3632C6.42535 17.6757 6.24976 18.0996 6.24976 18.5417V20.2083C6.24976 20.6504 6.42535 21.0743 6.73792 21.3868C7.05048 21.6994 7.47441 21.875 7.91644 21.875H9.58313C10.0252 21.875 10.4491 21.6994 10.7617 21.3868C11.0742 21.0743 11.2498 20.6504 11.2498 20.2083V18.5417C11.2498 18.0996 11.0742 17.6757 10.7617 17.3632C10.4491 17.0506 10.0252 16.875 9.58313 16.875H7.91644ZM7.91644 18.5417V20.2083H9.58313V18.5417H7.91644ZM12.9165 18.5417C12.9165 18.0996 13.0921 17.6757 13.4047 17.3632C13.7172 17.0506 14.1412 16.875 14.5832 16.875H16.2499C16.6919 16.875 17.1158 17.0506 17.4284 17.3632C17.741 17.6757 17.9166 18.0996 17.9166 18.5417V20.2083C17.9166 20.6504 17.741 21.0743 17.4284 21.3868C17.1158 21.6994 16.6919 21.875 16.2499 21.875H14.5832C14.1412 21.875 13.7172 21.6994 13.4047 21.3868C13.0921 21.0743 12.9165 20.6504 12.9165 20.2083V18.5417ZM14.5832 18.5417H16.2499V20.2083H14.5832V18.5417ZM21.25 16.875C20.8079 16.875 20.384 17.0506 20.0714 17.3632C19.7589 17.6757 19.5833 18.0996 19.5833 18.5417V20.2083C19.5833 20.6504 19.7589 21.0743 20.0714 21.3868C20.384 21.6994 20.8079 21.875 21.25 21.875H22.9166C23.3587 21.875 23.7826 21.6994 24.0952 21.3868C24.4077 21.0743 24.5833 20.6504 24.5833 20.2083V18.5417C24.5833 18.0996 24.4077 17.6757 24.0952 17.3632C23.7826 17.0506 23.3587 16.875 22.9166 16.875H21.25ZM21.25 18.5417V20.2083H22.9166V18.5417H21.25ZM6.24976 25.2083C6.24976 24.7663 6.42535 24.3424 6.73792 24.0298C7.05048 23.7173 7.47441 23.5417 7.91644 23.5417H9.58313C10.0252 23.5417 10.4491 23.7173 10.7617 24.0298C11.0742 24.3424 11.2498 24.7663 11.2498 25.2083V26.875C11.2498 27.317 11.0742 27.741 10.7617 28.0535C10.4491 28.3661 10.0252 28.5417 9.58313 28.5417H7.91644C7.47441 28.5417 7.05048 28.3661 6.73792 28.0535C6.42535 27.741 6.24976 27.317 6.24976 26.875V25.2083ZM9.58313 25.2083V26.875H7.91644V25.2083H9.58313ZM14.5832 23.5417C14.1412 23.5417 13.7172 23.7173 13.4047 24.0298C13.0921 24.3424 12.9165 24.7663 12.9165 25.2083V26.875C12.9165 27.317 13.0921 27.741 13.4047 28.0535C13.7172 28.3661 14.1412 28.5417 14.5832 28.5417H16.2499C16.6919 28.5417 17.1158 28.3661 17.4284 28.0535C17.741 27.741 17.9166 27.317 17.9166 26.875V25.2083C17.9166 24.7663 17.741 24.3424 17.4284 24.0298C17.1158 23.7173 16.6919 23.5417 16.2499 23.5417H14.5832ZM16.2499 25.2083H14.5832V26.875H16.2499V25.2083Z" fill="#00369F"/>
<path d="M27.9169 26.4583C27.9169 26.2373 27.8291 26.0254 27.6729 25.8691C27.5166 25.7128 27.3046 25.625 27.0836 25.625C26.8626 25.625 26.6506 25.7128 26.4943 25.8691C26.338 26.0254 26.2502 26.2373 26.2502 26.4583V28.8867L27.3278 29.9642C27.4849 30.116 27.6954 30.2 27.9139 30.1981C28.1324 30.1962 28.3414 30.1085 28.496 29.954C28.6505 29.7995 28.7381 29.5905 28.74 29.372C28.7419 29.1535 28.6579 28.943 28.5061 28.7858L27.9169 28.1967V26.4583Z" fill="#00369F"/>
<path fill-rule="evenodd" clip-rule="evenodd" d="M7.91681 5.20833C7.91681 4.98732 8.00461 4.77536 8.16089 4.61908C8.31718 4.4628 8.52914 4.375 8.75016 4.375C8.97117 4.375 9.18314 4.4628 9.33942 4.61908C9.4957 4.77536 9.5835 4.98732 9.5835 5.20833V9.375C9.5835 9.59601 9.6713 9.80797 9.82758 9.96426C9.98386 10.1205 10.1958 10.2083 10.4168 10.2083C10.6379 10.2083 10.8498 10.1205 11.0061 9.96426C11.1624 9.80797 11.2502 9.59601 11.2502 9.375V6.875H19.5836V5.20833C19.5836 4.98732 19.6714 4.77536 19.8277 4.61908C19.984 4.4628 20.196 4.375 20.417 4.375C20.638 4.375 20.85 4.4628 21.0062 4.61908C21.1625 4.77536 21.2503 4.98732 21.2503 5.20833V9.375C21.2503 9.59601 21.3381 9.80797 21.4944 9.96426C21.6507 10.1205 21.8626 10.2083 22.0837 10.2083C22.3047 10.2083 22.5166 10.1205 22.6729 9.96426C22.8292 9.80797 22.917 9.59601 22.917 9.375V6.875H25.417C26.0801 6.875 26.716 7.13839 27.1848 7.60723C27.6537 8.07607 27.9171 8.71196 27.9171 9.375V22.7667C29.3767 22.9776 30.7023 23.7336 31.6271 24.8824C32.5519 26.0312 33.0074 27.4876 32.9018 28.9586C32.7962 30.4296 32.1374 31.806 31.0579 32.8109C29.9785 33.8159 28.5585 34.3747 27.0837 34.375C26.1432 34.3756 25.2165 34.1486 24.3828 33.7132C23.5491 33.2779 22.8332 32.6472 22.2962 31.875H5.41678C4.75373 31.875 4.11784 31.6116 3.64899 31.1428C3.18014 30.6739 2.91675 30.038 2.91675 29.375V9.375C2.91675 8.71196 3.18014 8.07607 3.64899 7.60723C4.11784 7.13839 4.75373 6.875 5.41678 6.875H7.91681V5.20833ZM21.2503 28.5417C21.2501 27.1387 21.7555 25.7827 22.6738 24.7221C23.5921 23.6615 24.8619 22.9673 26.2504 22.7667V14.375H4.58344V29.375C4.58344 29.596 4.67123 29.808 4.82752 29.9643C4.9838 30.1205 5.19576 30.2083 5.41678 30.2083H21.492C21.3312 29.6674 21.2498 29.106 21.2503 28.5417ZM31.2504 28.5417C31.2504 29.6467 30.8115 30.7065 30.03 31.4879C29.2486 32.2693 28.1888 32.7083 27.0837 32.7083C25.9786 32.7083 24.9188 32.2693 24.1374 31.4879C23.356 30.7065 22.917 29.6467 22.917 28.5417C22.917 27.4366 23.356 26.3768 24.1374 25.5954C24.9188 24.814 25.9786 24.375 27.0837 24.375C28.1888 24.375 29.2486 24.814 30.03 25.5954C30.8115 26.3768 31.2504 27.4366 31.2504 28.5417Z" fill="#00369F"/>
</svg>
