<svg width="35" height="35" viewBox="0 0 35 35" fill="none" xmlns="http://www.w3.org/2000/svg">
<g clip-path="url(#clip0_106_53)">
<path fill-rule="evenodd" clip-rule="evenodd" d="M23 8C23.5304 8 24.0391 8.21071 24.4142 8.58579C24.7893 8.96086 25 9.46957 25 10V11H26C26.2652 11 26.5196 11.1054 26.7071 11.2929C26.8946 11.4804 27 11.7348 27 12C27 12.2652 26.8946 12.5196 26.7071 12.7071C26.5196 12.8946 26.2652 13 26 13V24C26.2652 24 26.5196 24.1054 26.7071 24.2929C26.8946 24.4804 27 24.7348 27 25C27 25.2652 26.8946 25.5196 26.7071 25.7071C26.5196 25.8946 26.2652 26 26 26H19.5V21.5C19.5 21.1022 19.342 20.7206 19.0607 20.4393C18.7794 20.158 18.3978 20 18 20C17.6022 20 17.2206 20.158 16.9393 20.4393C16.658 20.7206 16.5 21.1022 16.5 21.5V26H10C9.73478 26 9.48043 25.8946 9.29289 25.7071C9.10536 25.5196 9 25.2652 9 25C9 24.7348 9.10536 24.4804 9.29289 24.2929C9.48043 24.1054 9.73478 24 10 24V13C9.73478 13 9.48043 12.8946 9.29289 12.7071C9.10536 12.5196 9 12.2652 9 12C9 11.7348 9.10536 11.4804 9.29289 11.2929C9.48043 11.1054 9.73478 11 10 11H11V10C11 9.46957 11.2107 8.96086 11.5858 8.58579C11.9609 8.21071 12.4696 8 13 8H23ZM14 18C13.7348 18 13.4804 18.1054 13.2929 18.2929C13.1054 18.4804 13 18.7348 13 19V20C13 20.2652 13.1054 20.5196 13.2929 20.7071C13.4804 20.8946 13.7348 21 14 21C14.2652 21 14.5196 20.8946 14.7071 20.7071C14.8946 20.5196 15 20.2652 15 20V19C15 18.7348 14.8946 18.4804 14.7071 18.2929C14.5196 18.1054 14.2652 18 14 18ZM22 18C21.7551 18 21.5187 18.09 21.3356 18.2527C21.1526 18.4155 21.0357 18.6397 21.007 18.883L21 19V20C21.0003 20.2549 21.0979 20.5 21.2728 20.6854C21.4478 20.8707 21.687 20.9822 21.9414 20.9972C22.1958 21.0121 22.4464 20.9293 22.6418 20.7657C22.8373 20.6021 22.9629 20.3701 22.993 20.117L23 20V19C23 18.7348 22.8946 18.4804 22.7071 18.2929C22.5196 18.1054 22.2652 18 22 18ZM14 14C13.7551 14 13.5187 14.09 13.3356 14.2527C13.1526 14.4155 13.0357 14.6397 13.007 14.883L13 15V16C13.0003 16.2549 13.0979 16.5 13.2728 16.6854C13.4478 16.8707 13.687 16.9822 13.9414 16.9972C14.1958 17.0121 14.4464 16.9293 14.6418 16.7657C14.8373 16.6021 14.9629 16.3701 14.993 16.117L15 16V15C15 14.7348 14.8946 14.4804 14.7071 14.2929C14.5196 14.1054 14.2652 14 14 14ZM18 14C17.7551 14 17.5187 14.09 17.3356 14.2527C17.1526 14.4155 17.0357 14.6397 17.007 14.883L17 15V16C17.0003 16.2549 17.0979 16.5 17.2728 16.6854C17.4478 16.8707 17.687 16.9822 17.9414 16.9972C18.1958 17.0121 18.4464 16.9293 18.6418 16.7657C18.8373 16.6021 18.9629 16.3701 18.993 16.117L19 16V15C19 14.7348 18.8946 14.4804 18.7071 14.2929C18.5196 14.1054 18.2652 14 18 14ZM22 14C21.7348 14 21.4804 14.1054 21.2929 14.2929C21.1054 14.4804 21 14.7348 21 15V16C21 16.2652 21.1054 16.5196 21.2929 16.7071C21.4804 16.8946 21.7348 17 22 17C22.2652 17 22.5196 16.8946 22.7071 16.7071C22.8946 16.5196 23 16.2652 23 16V15C23 14.7348 22.8946 14.4804 22.7071 14.2929C22.5196 14.1054 22.2652 14 22 14ZM23 10H13V11H23V10Z" fill="black"/>
<path fill-rule="evenodd" clip-rule="evenodd" d="M23 8C23.5304 8 24.0391 8.21071 24.4142 8.58579C24.7893 8.96086 25 9.46957 25 10V11H26C26.2652 11 26.5196 11.1054 26.7071 11.2929C26.8946 11.4804 27 11.7348 27 12C27 12.2652 26.8946 12.5196 26.7071 12.7071C26.5196 12.8946 26.2652 13 26 13V24C26.2652 24 26.5196 24.1054 26.7071 24.2929C26.8946 24.4804 27 24.7348 27 25C27 25.2652 26.8946 25.5196 26.7071 25.7071C26.5196 25.8946 26.2652 26 26 26H19.5V21.5C19.5 21.1022 19.342 20.7206 19.0607 20.4393C18.7794 20.158 18.3978 20 18 20C17.6022 20 17.2206 20.158 16.9393 20.4393C16.658 20.7206 16.5 21.1022 16.5 21.5V26H10C9.73478 26 9.48043 25.8946 9.29289 25.7071C9.10536 25.5196 9 25.2652 9 25C9 24.7348 9.10536 24.4804 9.29289 24.2929C9.48043 24.1054 9.73478 24 10 24V13C9.73478 13 9.48043 12.8946 9.29289 12.7071C9.10536 12.5196 9 12.2652 9 12C9 11.7348 9.10536 11.4804 9.29289 11.2929C9.48043 11.1054 9.73478 11 10 11H11V10C11 9.46957 11.2107 8.96086 11.5858 8.58579C11.9609 8.21071 12.4696 8 13 8H23ZM14 18C13.7348 18 13.4804 18.1054 13.2929 18.2929C13.1054 18.4804 13 18.7348 13 19V20C13 20.2652 13.1054 20.5196 13.2929 20.7071C13.4804 20.8946 13.7348 21 14 21C14.2652 21 14.5196 20.8946 14.7071 20.7071C14.8946 20.5196 15 20.2652 15 20V19C15 18.7348 14.8946 18.4804 14.7071 18.2929C14.5196 18.1054 14.2652 18 14 18ZM22 18C21.7551 18 21.5187 18.09 21.3356 18.2527C21.1526 18.4155 21.0357 18.6397 21.007 18.883L21 19V20C21.0003 20.2549 21.0979 20.5 21.2728 20.6854C21.4478 20.8707 21.687 20.9822 21.9414 20.9972C22.1958 21.0121 22.4464 20.9293 22.6418 20.7657C22.8373 20.6021 22.9629 20.3701 22.993 20.117L23 20V19C23 18.7348 22.8946 18.4804 22.7071 18.2929C22.5196 18.1054 22.2652 18 22 18ZM14 14C13.7551 14 13.5187 14.09 13.3356 14.2527C13.1526 14.4155 13.0357 14.6397 13.007 14.883L13 15V16C13.0003 16.2549 13.0979 16.5 13.2728 16.6854C13.4478 16.8707 13.687 16.9822 13.9414 16.9972C14.1958 17.0121 14.4464 16.9293 14.6418 16.7657C14.8373 16.6021 14.9629 16.3701 14.993 16.117L15 16V15C15 14.7348 14.8946 14.4804 14.7071 14.2929C14.5196 14.1054 14.2652 14 14 14ZM18 14C17.7551 14 17.5187 14.09 17.3356 14.2527C17.1526 14.4155 17.0357 14.6397 17.007 14.883L17 15V16C17.0003 16.2549 17.0979 16.5 17.2728 16.6854C17.4478 16.8707 17.687 16.9822 17.9414 16.9972C18.1958 17.0121 18.4464 16.9293 18.6418 16.7657C18.8373 16.6021 18.9629 16.3701 18.993 16.117L19 16V15C19 14.7348 18.8946 14.4804 18.7071 14.2929C18.5196 14.1054 18.2652 14 18 14ZM22 14C21.7348 14 21.4804 14.1054 21.2929 14.2929C21.1054 14.4804 21 14.7348 21 15V16C21 16.2652 21.1054 16.5196 21.2929 16.7071C21.4804 16.8946 21.7348 17 22 17C22.2652 17 22.5196 16.8946 22.7071 16.7071C22.8946 16.5196 23 16.2652 23 16V15C23 14.7348 22.8946 14.4804 22.7071 14.2929C22.5196 14.1054 22.2652 14 22 14ZM23 10H13V11H23V10Z" fill="black"/>
</g>
<defs>
<clipPath id="clip0_106_53">
<rect width="24" height="24" fill="white" transform="translate(6 6)"/>
</clipPath>
</defs>
</svg>
