<svg width="30" height="30" viewBox="0 0 30 30" fill="none" xmlns="http://www.w3.org/2000/svg">
<g clip-path="url(#clip0_112_381)">
<path d="M5.20844 9.58333L10.0001 10.9667L15.2668 7.14167L7.70844 7.35833C7.63443 7.36237 7.56271 7.38533 7.5001 7.425L5.10844 8.8C5.03404 8.84122 4.97372 8.90381 4.93528 8.97968C4.89685 9.05555 4.88206 9.14121 4.89283 9.22557C4.9036 9.30994 4.93943 9.38914 4.9957 9.45292C5.05196 9.5167 5.12607 9.56213 5.20844 9.58333Z" fill="black"/>
<path d="M28.7664 5.3L23.5164 4.16667C23.0749 4.07081 22.6179 4.07106 22.1765 4.1674C21.7351 4.26374 21.3195 4.45391 20.9581 4.725L5.09975 16.25L1.29142 16.0833C1.07328 16.0759 0.858323 16.1372 0.6769 16.2586C0.495477 16.3799 0.356754 16.5552 0.280319 16.7596C0.203883 16.9641 0.193597 17.1873 0.250913 17.3979C0.308229 17.6085 0.430251 17.7958 0.59975 17.9333L4.30808 20.875C4.36913 20.9242 4.4418 20.957 4.51913 20.9701C4.59646 20.9833 4.67587 20.9763 4.74975 20.95C5.80808 20.5417 9.74975 18.45 14.4081 15.8917L15.3414 25.4833C15.3493 25.5664 15.3798 25.6457 15.4295 25.7128C15.4792 25.7798 15.5462 25.832 15.6234 25.8637C15.7006 25.8955 15.785 25.9055 15.8674 25.8928C15.9499 25.8801 16.0274 25.8451 16.0914 25.7917L18.1747 24.0583C18.2888 23.9627 18.3655 23.8299 18.3914 23.6833L20.3664 12.6083C23.6998 10.7583 26.8831 8.96667 29.1248 7.7C29.3574 7.57342 29.5455 7.37838 29.6636 7.14132C29.7816 6.90426 29.824 6.63663 29.7849 6.37469C29.7458 6.11275 29.6271 5.86916 29.4449 5.67693C29.2627 5.4847 29.0259 5.35311 28.7664 5.3Z" fill="black"/>
</g>
<defs>
<clipPath id="clip0_112_381">
<rect width="30" height="30" fill="white"/>
</clipPath>
</defs>
</svg>
