<svg width="24" height="24" viewBox="0 0 24 24" fill="none" xmlns="http://www.w3.org/2000/svg">
<g clip-path="url(#clip0_112_386)">
<path fill-rule="evenodd" clip-rule="evenodd" d="M17 2C17.5304 2 18.0391 2.21071 18.4142 2.58579C18.7893 2.96086 19 3.46957 19 4V5H20C20.2652 5 20.5196 5.10536 20.7071 5.29289C20.8946 5.48043 21 5.73478 21 6C21 6.26522 20.8946 6.51957 20.7071 6.70711C20.5196 6.89464 20.2652 7 20 7V18C20.2652 18 20.5196 18.1054 20.7071 18.2929C20.8946 18.4804 21 18.7348 21 19C21 19.2652 20.8946 19.5196 20.7071 19.7071C20.5196 19.8946 20.2652 20 20 20H13.5V15.5C13.5 15.1022 13.342 14.7206 13.0607 14.4393C12.7794 14.158 12.3978 14 12 14C11.6022 14 11.2206 14.158 10.9393 14.4393C10.658 14.7206 10.5 15.1022 10.5 15.5V20H4C3.73478 20 3.48043 19.8946 3.29289 19.7071C3.10536 19.5196 3 19.2652 3 19C3 18.7348 3.10536 18.4804 3.29289 18.2929C3.48043 18.1054 3.73478 18 4 18V7C3.73478 7 3.48043 6.89464 3.29289 6.70711C3.10536 6.51957 3 6.26522 3 6C3 5.73478 3.10536 5.48043 3.29289 5.29289C3.48043 5.10536 3.73478 5 4 5H5V4C5 3.46957 5.21071 2.96086 5.58579 2.58579C5.96086 2.21071 6.46957 2 7 2H17ZM8 12C7.73478 12 7.48043 12.1054 7.29289 12.2929C7.10536 12.4804 7 12.7348 7 13V14C7 14.2652 7.10536 14.5196 7.29289 14.7071C7.48043 14.8946 7.73478 15 8 15C8.26522 15 8.51957 14.8946 8.70711 14.7071C8.89464 14.5196 9 14.2652 9 14V13C9 12.7348 8.89464 12.4804 8.70711 12.2929C8.51957 12.1054 8.26522 12 8 12ZM16 12C15.7551 12 15.5187 12.09 15.3356 12.2527C15.1526 12.4155 15.0357 12.6397 15.007 12.883L15 13V14C15.0003 14.2549 15.0979 14.5 15.2728 14.6854C15.4478 14.8707 15.687 14.9822 15.9414 14.9972C16.1958 15.0121 16.4464 14.9293 16.6418 14.7657C16.8373 14.6021 16.9629 14.3701 16.993 14.117L17 14V13C17 12.7348 16.8946 12.4804 16.7071 12.2929C16.5196 12.1054 16.2652 12 16 12ZM8 8C7.75507 8.00003 7.51866 8.08996 7.33563 8.25272C7.15259 8.41547 7.03566 8.63975 7.007 8.883L7 9V10C7.00028 10.2549 7.09788 10.5 7.27285 10.6854C7.44782 10.8707 7.68695 10.9822 7.94139 10.9972C8.19584 11.0121 8.44638 10.9293 8.64183 10.7657C8.83729 10.6021 8.9629 10.3701 8.993 10.117L9 10V9C9 8.73478 8.89464 8.48043 8.70711 8.29289C8.51957 8.10536 8.26522 8 8 8ZM12 8C11.7551 8.00003 11.5187 8.08996 11.3356 8.25272C11.1526 8.41547 11.0357 8.63975 11.007 8.883L11 9V10C11.0003 10.2549 11.0979 10.5 11.2728 10.6854C11.4478 10.8707 11.687 10.9822 11.9414 10.9972C12.1958 11.0121 12.4464 10.9293 12.6418 10.7657C12.8373 10.6021 12.9629 10.3701 12.993 10.117L13 10V9C13 8.73478 12.8946 8.48043 12.7071 8.29289C12.5196 8.10536 12.2652 8 12 8ZM16 8C15.7348 8 15.4804 8.10536 15.2929 8.29289C15.1054 8.48043 15 8.73478 15 9V10C15 10.2652 15.1054 10.5196 15.2929 10.7071C15.4804 10.8946 15.7348 11 16 11C16.2652 11 16.5196 10.8946 16.7071 10.7071C16.8946 10.5196 17 10.2652 17 10V9C17 8.73478 16.8946 8.48043 16.7071 8.29289C16.5196 8.10536 16.2652 8 16 8ZM17 4H7V5H17V4Z" fill="black"/>
</g>
<defs>
<clipPath id="clip0_112_386">
<rect width="24" height="24" fill="white"/>
</clipPath>
</defs>
</svg>
