<svg width="35" height="35" viewBox="0 0 35 35" fill="none" xmlns="http://www.w3.org/2000/svg">
<path d="M16.0417 20.4167H18.2292C19.5829 20.4167 20.8811 19.8789 21.8384 18.9217C22.7956 17.9645 23.3333 16.6662 23.3333 15.3125C23.3333 13.9588 22.7956 12.6605 21.8384 11.7033C20.8811 10.7461 19.5829 10.2083 18.2292 10.2083H13.125V24.7917H16.0417V20.4167ZM5.83333 4.375H29.1667C29.5534 4.375 29.9244 4.52865 30.1979 4.80214C30.4714 5.07563 30.625 5.44656 30.625 5.83333V29.1667C30.625 29.5534 30.4714 29.9244 30.1979 30.1979C29.9244 30.4714 29.5534 30.625 29.1667 30.625H5.83333C5.44656 30.625 5.07563 30.4714 4.80214 30.1979C4.52865 29.9244 4.375 29.5534 4.375 29.1667V5.83333C4.375 5.44656 4.52865 5.07563 4.80214 4.80214C5.07563 4.52865 5.44656 4.375 5.83333 4.375ZM16.0417 13.125H18.2292C18.8093 13.125 19.3657 13.3555 19.776 13.7657C20.1862 14.1759 20.4167 14.7323 20.4167 15.3125C20.4167 15.8927 20.1862 16.4491 19.776 16.8593C19.3657 17.2695 18.8093 17.5 18.2292 17.5H16.0417V13.125Z" fill="black"/>
</svg>
