<svg width="35" height="35" viewBox="0 0 35 35" fill="none" xmlns="http://www.w3.org/2000/svg">
<path d="M10.208 32.0833V18.7396C8.96842 18.3993 7.92961 17.7188 7.09155 16.6979C6.25349 15.6771 5.83398 14.4861 5.83301 13.125V2.91667H8.74967V13.125H10.208V2.91667H13.1247V13.125H14.583V2.91667H17.4997V13.125C17.4997 14.4861 17.0806 15.6771 16.2426 16.6979C15.4045 17.7188 14.3652 18.3993 13.1247 18.7396V32.0833H10.208ZM24.7913 32.0833V20.4167H20.4163V10.2083C20.4163 8.19097 21.1275 6.4716 22.5499 5.05021C23.9722 3.62882 25.6916 2.91764 27.708 2.91667V32.0833H24.7913Z" fill="black"/>
</svg>
