<svg width="35" height="35" viewBox="0 0 35 35" fill="none" xmlns="http://www.w3.org/2000/svg">
<path d="M2.91699 21.875C5.35241 20.7812 7.77324 19.6875 10.2087 19.2062V7.29166C10.2087 6.13134 10.6696 5.01854 11.4901 4.19807C12.3105 3.3776 13.4233 2.91666 14.5837 2.91666C16.4941 2.91666 18.1128 4.12708 18.7107 5.83333H14.5837C14.1969 5.83333 13.826 5.98698 13.5525 6.26047C13.279 6.53396 13.1253 6.90489 13.1253 7.29166V8.75H20.417V7.29166C20.417 6.13134 20.8779 5.01854 21.6984 4.19807C22.5189 3.3776 23.6317 2.91666 24.792 2.91666C26.7024 2.91666 28.3212 4.12708 28.9191 5.83333H24.792C24.4052 5.83333 24.0343 5.98698 23.7608 6.26047C23.4873 6.53396 23.3337 6.90489 23.3337 7.29166V21.7875C26.2503 21.3208 29.167 18.9583 32.0837 18.9583V21.875C28.8462 21.875 25.6087 24.7917 22.3566 24.7917C19.1191 24.7917 15.8816 21.875 12.6441 21.875C9.39199 21.875 6.15449 23.3333 2.91699 24.7917V21.875ZM20.417 11.6667H13.1253V14.5833H20.417V11.6667ZM20.417 17.5H13.1253V18.9583C15.5607 19.1917 17.9816 20.8687 20.417 21.5687V17.5ZM2.91699 27.7083C6.15449 26.25 9.39199 24.7917 12.6441 24.7917C15.8816 24.7917 19.1191 27.7083 22.3566 27.7083C25.6087 27.7083 28.8462 24.7917 32.0837 24.7917V27.7083C28.8462 27.7083 25.6087 30.625 22.3566 30.625C19.1191 30.625 15.8816 27.7083 12.6441 27.7083C9.39199 27.7083 6.15449 29.1667 2.91699 30.625V27.7083Z" fill="black"/>
</svg>
